HIERARCHY
ROOT Hips
{
	OFFSET 15.585500 22.159004 44.358299
	CHANNELS 6 Xposition Yposition Zposition Zrotation Xrotation Yrotation
	JOINT Chest
	{
		OFFSET -0.128500 0.160400 6.566002
		CHANNELS 6 Xposition Yposition Zposition Zrotation Xrotation Yrotation
		JOINT Chest2
		{
			OFFSET 0.000000 0.000000 3.554802
			CHANNELS 6 Xposition Yposition Zposition Zrotation Xrotation Yrotation
			JOINT Neck
			{
				OFFSET 0.000000 0.000000 8.267998
				CHANNELS 6 Xposition Yposition Zposition Zrotation Xrotation Yrotation
				JOINT Head
				{
					OFFSET 0.000000 0.000002 2.173897
					CHANNELS 6 Xposition Yposition Zposition Zrotation Xrotation Yrotation
					End Site
					{
						OFFSET 0.000000 0.000000 7.718697
					}
				}
			}
			JOINT LeftCollar
			{
				OFFSET 2.057500 0.117599 5.946301
				CHANNELS 6 Xposition Yposition Zposition Zrotation Xrotation Yrotation
				JOINT LeftShoulder
				{
					OFFSET 4.957699 0.000000 0.000000
					CHANNELS 6 Xposition Yposition Zposition Zrotation Xrotation Yrotation
					JOINT LeftElbow
					{
						OFFSET 0.000000 0.000000 -8.465500
						CHANNELS 6 Xposition Yposition Zposition Zrotation Xrotation Yrotation
						JOINT LeftWrist
						{
							OFFSET 0.000000 -0.000002 -14.594898
							CHANNELS 6 Xposition Yposition Zposition Zrotation Xrotation Yrotation
							End Site
							{
								OFFSET 0.000000 0.000000 -2.173901
							}
						}
					}
				}
			}
			JOINT RightCollar
			{
				OFFSET -3.048500 -0.728800 6.604099
				CHANNELS 6 Xposition Yposition Zposition Zrotation Xrotation Yrotation
				JOINT RightShoulder
				{
					OFFSET -3.710299 0.000000 0.000000
					CHANNELS 6 Xposition Yposition Zposition Zrotation Xrotation Yrotation
					JOINT RightElbow
					{
						OFFSET 0.000000 0.000000 -10.450901
						CHANNELS 6 Xposition Yposition Zposition Zrotation Xrotation Yrotation
						JOINT RightWrist
						{
							OFFSET 0.000000 0.000000 -12.539200
							CHANNELS 6 Xposition Yposition Zposition Zrotation Xrotation Yrotation
							End Site
							{
								OFFSET 0.000000 -0.000002 -2.173901
							}
						}
					}
				}
			}
		}
	}
	JOINT LeftHip
	{
		OFFSET 2.442599 -0.601400 -2.767502
		CHANNELS 6 Xposition Yposition Zposition Zrotation Xrotation Yrotation
		JOINT LeftKnee
		{
			OFFSET 0.000000 -0.000002 -17.033703
			CHANNELS 6 Xposition Yposition Zposition Zrotation Xrotation Yrotation
			JOINT LeftAnkle
			{
				OFFSET 0.000000 -0.000002 -19.318800
				CHANNELS 6 Xposition Yposition Zposition Zrotation Xrotation Yrotation
				End Site
				{
					OFFSET 0.000000 -8.281900 0.000000
				}
			}
		}
	}
	JOINT RightHip
	{
		OFFSET -3.126200 -0.601400 -2.283501
		CHANNELS 6 Xposition Yposition Zposition Zrotation Xrotation Yrotation
		JOINT RightKnee
		{
			OFFSET 0.000000 -0.000002 -16.919401
			CHANNELS 6 Xposition Yposition Zposition Zrotation Xrotation Yrotation
			JOINT RightAnkle
			{
				OFFSET 0.000000 -0.000002 -18.035900
				CHANNELS 6 Xposition Yposition Zposition Zrotation Xrotation Yrotation
				End Site
				{
					OFFSET 0.000000 -9.230099 0.000000
				}
			}
		}
	}
}
MOTION
Frames: 6
Frame Time: 0.041667
25.800499 39.283203 9.215698 4.106781 0.370691 9.313551 -0.128499 0.160395 6.566001 -5.635696 2.437616 -0.732807 -0.000001 -0.000009 3.554802 10.334292 -10.660774 0.978109 0.000006 -0.000004 8.268000 -15.293956 7.769944 -5.413452 0.000003 0.000002 2.173900 -0.164796 -2.503374 -4.470525 2.057505 0.117596 5.946309 -34.494941 18.258388 3.501667 4.957694 0.000000 0.000003 -8.549464 -23.867526 -165.571504 -0.000001 0.000004 -8.465508 -103.381798 -162.548557 -161.135979 0.000001 0.000001 -14.594894 31.577853 -21.054003 -13.261950 -3.048499 -0.728803 6.604105 52.229784 9.350041 -47.052446 -3.710292 -0.000000 -0.000015 27.527974 -23.165983 187.210854 0.000003 0.000005 -10.450892 -61.826340 -20.475871 -8.331008 0.000007 0.000002 -12.539190 672.703364 -12.713218 24.930600 2.442597 -0.601400 -2.767507 129.060673 -7.126950 100.274718 -0.000001 -0.000000 -17.033707 -173.343316 50.908794 164.107070 -0.000003 0.000004 -19.318802 -139.940672 118.499698 392.786175 -3.126198 -0.601401 -2.283504 -135.600838 -19.154936 -96.648748 0.000002 0.000000 -16.919399 191.144538 36.484278 -195.220194 -0.000002 -0.000003 -18.035896 -24.928304 43.051751 -207.772360
25.824102 39.291100 9.217003 4.076007 0.301165 9.455131 -0.128498 0.160402 6.566001 -5.613790 2.416522 -0.808790 0.000000 0.000002 3.554804 10.301487 -10.626887 0.973577 -0.000000 0.000001 8.267999 -15.487316 7.847527 -5.373864 0.000002 0.000001 2.173899 -0.072000 -2.479968 -4.623586 2.057503 0.117595 5.946308 -34.438111 18.268213 3.386582 4.957697 0.000006 -0.000000 -8.144397 -23.860241 -165.093049 -0.000006 0.000003 -8.465508 -102.882429 -162.507453 -161.120488 -0.000004 0.000004 -14.594894 31.717380 -21.065120 -13.204481 -3.048504 -0.728802 6.604098 52.272814 9.320713 -46.967386 -3.710298 -0.000006 -0.000012 27.490367 -23.564931 186.586493 0.000001 0.000001 -10.450894 -62.051504 -20.774215 -8.558852 0.000006 -0.000001 -12.539192 672.720631 -12.903273 25.018787 2.442595 -0.601393 -2.767504 129.049171 -7.213462 100.227719 -0.000001 -0.000005 -17.033705 -173.261299 50.925037 164.000437 -0.000002 0.000002 -19.318802 -139.816964 118.547891 392.607716 -3.126194 -0.601395 -2.283497 -135.547536 -19.236319 -96.593464 0.000001 0.000000 -16.919397 191.115277 36.478343 -195.204839 -0.000000 -0.000006 -18.035900 -24.686920 43.068096 -207.859472
25.846203 39.299103 9.218098 4.050350 0.237718 9.587096 -0.128500 0.160398 6.566003 -5.597456 2.390910 -0.879157 -0.000001 0.000005 3.554806 10.275849 -10.592139 0.970562 0.000004 -0.000003 8.268001 -15.679481 7.922575 -5.333490 0.000003 -0.000002 2.173900 -0.337218 -2.291933 -4.148887 2.057506 0.117594 5.946306 -34.381140 18.271550 3.281344 4.957694 0.000004 0.000003 -7.790037 -23.855120 -164.653799 -0.000003 0.000002 -8.465499 -102.435229 -162.477906 -161.108194 -0.000001 0.000001 -14.594891 31.861596 -21.074518 -13.148665 -3.048497 -0.728809 6.604103 52.325717 9.295580 -46.877948 -3.710302 -0.000004 -0.000004 27.423013 -23.992004 185.948950 0.000000 0.000002 -10.450894 -62.326439 -21.089631 -8.690771 0.000005 -0.000001 -12.539205 672.732980 -13.004366 25.026307 2.442591 -0.601401 -2.767502 129.033871 -7.288290 100.189689 -0.000001 -0.000006 -17.033709 -173.188845 50.941716 163.899091 0.000000 0.000002 -19.318806 -139.693433 118.590170 392.428164 -3.126201 -0.601405 -2.283498 -135.499765 -19.311071 -96.546657 0.000001 -0.000000 -16.919399 191.093735 36.474634 -195.192395 -0.000005 -0.000001 -18.035898 -24.460933 43.088720 -207.947910
25.866901 39.307003 9.218998 4.029530 0.180374 9.708279 -0.128498 0.160407 6.566004 -5.586584 2.361173 -0.941562 -0.000001 -0.000001 3.554808 10.295961 -10.473227 1.001998 -0.000002 0.000007 8.267999 -15.904673 7.922013 -5.340630 -0.000001 0.000001 2.173899 -0.323080 -2.212975 -4.138407 2.057503 0.117607 5.946306 -34.341798 18.214103 3.114390 4.957696 0.000006 0.000004 -7.489336 -23.854084 -164.256733 -0.000008 0.000001 -8.465500 -102.042172 -162.460093 -161.098686 -0.000001 0.000000 -14.594894 31.688198 -20.979662 -13.080225 -3.048505 -0.728797 6.604096 52.326899 9.197998 -46.739387 -3.710299 -0.000006 -0.000008 27.335093 -24.430359 185.298716 0.000000 0.000006 -10.450898 -62.636905 -21.410876 -8.828136 0.000003 -0.000009 -12.539192 672.749973 -13.102997 25.019840 2.442598 -0.601394 -2.767505 129.014473 -7.349613 100.159745 -0.000001 0.000000 -17.033703 -173.125283 50.958358 163.801733 -0.000002 -0.000000 -19.318810 -139.571583 118.627176 392.252983 -3.126198 -0.601392 -2.283500 -135.458087 -19.380732 -96.509234 0.000000 -0.000001 -16.919397 186.868156 37.047626 -191.975936 -0.000002 -0.000005 -18.035900 -27.153774 43.345060 -209.480823
25.886402 39.314999 9.219898 4.013243 0.128679 9.817941 -0.128499 0.160400 6.566003 -5.581126 2.328527 -0.993892 -0.000001 0.000001 3.554805 10.280357 -10.438520 1.000320 0.000002 -0.000000 8.268002 -16.094572 7.991225 -5.299045 0.000003 0.000010 2.173896 -0.307113 -2.123455 -4.114669 2.057506 0.117599 5.946306 -34.283356 18.202999 3.030067 4.957696 0.000001 -0.000004 -7.242403 -23.858254 -163.902861 -0.000006 0.000003 -8.465502 -101.702309 -162.453263 -161.091501 0.000000 0.000000 -14.594895 31.842762 -20.990276 -13.022755 -3.048504 -0.728801 6.604097 52.362877 9.166335 -46.657914 -3.710299 -0.000003 -0.000010 27.233960 -24.865148 184.635695 0.000002 0.000005 -10.450892 -62.978251 -21.738271 -8.970673 0.000002 -0.000005 -12.539190 672.822811 -13.104035 24.532967 2.442596 -0.601400 -2.767505 128.991073 -7.395749 100.136461 -0.000001 0.000001 -17.033709 -173.071284 50.974709 163.708091 -0.000001 0.000001 -19.318806 -139.453297 118.659333 392.087228 -3.126197 -0.601405 -2.283500 -135.422680 -19.447560 -96.481217 0.000001 0.000000 -16.919395 186.475202 37.089652 -191.675763 0.000000 -0.000002 -18.035898 -27.200614 43.378344 -209.660361
25.904701 39.323105 9.220806 4.001131 0.081338 9.915470 -0.128499 0.160401 6.566000 -5.580400 2.294816 -1.034392 -0.000000 0.000001 3.554805 10.267582 -10.405680 0.998722 -0.000001 -0.000002 8.268000 -16.283355 8.058021 -5.256822 0.000003 0.000002 2.173897 -0.288719 -2.024505 -4.079066 2.057500 0.117595 5.946304 -34.232703 18.172125 2.892085 4.957698 0.000008 0.000005 -7.006814 -23.863621 -163.516245 -0.000003 0.000009 -8.465500 -101.411862 -162.455995 -161.086269 -0.000001 -0.000003 -14.594891 31.988225 -21.017739 -12.972057 -3.048501 -0.728806 6.604095 52.376691 9.126018 -46.587382 -3.710300 0.000001 -0.000006 27.123723 -25.285002 183.959070 0.000001 0.000000 -10.450891 -63.348495 -22.071917 -9.118088 0.000005 0.000000 -12.539190 672.851880 -13.199248 24.499122 2.442594 -0.601398 -2.767506 128.964053 -7.426756 100.118620 0.000000 -0.000007 -17.033707 -173.027898 50.990347 163.618466 -0.000003 0.000005 -19.318800 -139.340271 118.686777 391.935243 -3.126199 -0.601404 -2.283497 -135.393255 -19.513405 -96.461874 0.000004 0.000002 -16.919394 186.120100 37.127870 -191.403539 -0.000000 -0.000005 -18.035896 -27.236658 43.411907 -209.830105
